<svg width="900" height="620" viewBox="0 0 900 620" fill="none" xmlns="http://www.w3.org/2000/svg">
  <rect width="900" height="620" rx="36" fill="url(#bg)"/>
  <rect x="80" y="90" width="740" height="440" rx="24" fill="white" fill-opacity="0.92"/>
  <rect x="130" y="150" width="220" height="18" rx="9" fill="#DBEAFE"/>
  <rect x="130" y="188" width="470" height="14" rx="7" fill="#E2E8F0"/>
  <rect x="130" y="214" width="410" height="14" rx="7" fill="#E2E8F0"/>
  <rect x="130" y="248" width="130" height="38" rx="19" fill="#2563EB"/>
  <rect x="130" y="316" width="640" height="160" rx="16" fill="#F8FAFC"/>
  <rect x="160" y="350" width="170" height="12" rx="6" fill="#CBD5E1"/>
  <rect x="160" y="374" width="240" height="10" rx="5" fill="#E2E8F0"/>
  <rect x="430" y="350" width="170" height="12" rx="6" fill="#CBD5E1"/>
  <rect x="430" y="374" width="240" height="10" rx="5" fill="#E2E8F0"/>
  <circle cx="742" cy="132" r="28" fill="#1D4ED8"/>
  <defs>
    <linearGradient id="bg" x1="0" y1="0" x2="900" y2="620" gradientUnits="userSpaceOnUse">
      <stop stop-color="#0B1220"/>
      <stop offset="1" stop-color="#1D4ED8"/>
    </linearGradient>
  </defs>
</svg>
