<svg width="900" height="620" viewBox="0 0 900 620" fill="none" xmlns="http://www.w3.org/2000/svg">
  <rect width="900" height="620" rx="36" fill="url(#bg)"/>
  <rect x="86" y="94" width="728" height="432" rx="24" fill="white" fill-opacity="0.95"/>
  <rect x="132" y="150" width="245" height="18" rx="9" fill="#C7D2FE"/>
  <rect x="132" y="186" width="500" height="14" rx="7" fill="#E2E8F0"/>
  <rect x="132" y="212" width="430" height="14" rx="7" fill="#E2E8F0"/>
  <rect x="132" y="248" width="145" height="38" rx="19" fill="#1D4ED8"/>
  <rect x="132" y="320" width="620" height="148" rx="16" fill="#F8FAFC"/>
  <rect x="170" y="350" width="210" height="12" rx="6" fill="#CBD5E1"/>
  <rect x="170" y="374" width="270" height="10" rx="5" fill="#E2E8F0"/>
  <rect x="472" y="350" width="210" height="12" rx="6" fill="#CBD5E1"/>
  <rect x="472" y="374" width="240" height="10" rx="5" fill="#E2E8F0"/>
  <path d="M750 154H726V130H694V154H670V186H694V210H726V186H750V154Z" fill="#1E40AF"/>
  <defs>
    <linearGradient id="bg" x1="0" y1="0" x2="900" y2="620" gradientUnits="userSpaceOnUse">
      <stop stop-color="#0F172A"/>
      <stop offset="1" stop-color="#1E3A8A"/>
    </linearGradient>
  </defs>
</svg>
