<svg xmlns="http://www.w3.org/2000/svg" viewBox="0 0 520 96" fill="none">
  <rect y="18" width="60" height="60" rx="13" fill="url(#markBg)" />
  <rect x="1" y="19" width="58" height="58" rx="12" stroke="rgba(255,255,255,0.2)" />
  <circle cx="30" cy="48" r="21" fill="url(#markHalo)" opacity="0.34" />
  <ellipse cx="26" cy="32" rx="16" ry="6" fill="url(#shine)">
  </ellipse>

  <rect x="11" y="26" width="5" height="36" rx="2.5" fill="url(#gold)" />
  <rect x="44" y="26" width="5" height="36" rx="2.5" fill="url(#gold)" />
  <rect x="16" y="28" width="28" height="4.5" rx="2.25" fill="url(#gold)" />
  <rect x="16" y="42" width="28" height="4.5" rx="2.25" fill="url(#gold)" />
  <rect x="16" y="56" width="28" height="4.5" rx="2.25" fill="url(#gold)" />

  <text x="75" y="58" font-family="-apple-system,Helvetica Neue,Arial,sans-serif" font-size="34" font-weight="600" letter-spacing="-0.5" fill="#1d1d1f">CodeCladders</text>
  <text x="76" y="76" font-family="-apple-system,Helvetica Neue,Arial,sans-serif" font-size="11" font-weight="500" letter-spacing="3" fill="#B8892E">LLC</text>

  <defs>
    <linearGradient id="markBg" x1="4" y1="18" x2="60" y2="78" gradientUnits="userSpaceOnUse">
      <stop offset="0" stop-color="#111B31" />
      <stop offset="1" stop-color="#0A1020" />
    </linearGradient>
    <radialGradient id="markHalo" cx="0" cy="0" r="1" gradientUnits="userSpaceOnUse" gradientTransform="translate(31 46) rotate(108) scale(25)">
      <stop stop-color="#F6E7B8" />
      <stop offset="1" stop-color="#F6E7B8" stop-opacity="0" />
    </radialGradient>
    <linearGradient id="gold" x1="0" y1="18" x2="60" y2="78" gradientUnits="userSpaceOnUse">
      <stop offset="0" stop-color="#F9EEC8" />
      <stop offset="0.55" stop-color="#E3C16E" />
      <stop offset="1" stop-color="#B8892E" />
    </linearGradient>
    <linearGradient id="shine" x1="10" y1="28" x2="43" y2="36" gradientUnits="userSpaceOnUse">
      <stop offset="0" stop-color="#FFFFFF" stop-opacity="0.72" />
      <stop offset="1" stop-color="#FFFFFF" stop-opacity="0" />
    </linearGradient>
  </defs>
</svg>
