<svg xmlns="http://www.w3.org/2000/svg" viewBox="0 0 120 120" fill="none">
  <rect width="120" height="120" rx="26" fill="url(#bg)" />
  <rect x="3" y="3" width="114" height="114" rx="23" stroke="rgba(255,255,255,0.18)" />
  <circle cx="60" cy="60" r="45" fill="url(#halo)" opacity="0.32" />
  <ellipse cx="52" cy="34" rx="28" ry="12" fill="url(#shine)" opacity="0.42" />

  <rect x="22" y="24" width="10" height="72" rx="5" fill="url(#gold)" />
  <rect x="88" y="24" width="10" height="72" rx="5" fill="url(#gold)" />

  <rect x="32" y="28" width="56" height="9" rx="4.5" fill="url(#gold)" />
  <rect x="32" y="55.5" width="56" height="9" rx="4.5" fill="url(#gold)" />
  <rect x="32" y="83" width="56" height="9" rx="4.5" fill="url(#gold)" />

  <path d="M47 41 L34 60 L47 79" stroke="#0B1222" stroke-width="3.5" stroke-linecap="round" stroke-linejoin="round" />
  <path d="M73 41 L86 60 L73 79" stroke="#0B1222" stroke-width="3.5" stroke-linecap="round" stroke-linejoin="round" />

  <defs>
    <linearGradient id="bg" x1="8" y1="4" x2="114" y2="116" gradientUnits="userSpaceOnUse">
      <stop offset="0" stop-color="#111B31" />
      <stop offset="1" stop-color="#0A1020" />
    </linearGradient>
    <radialGradient id="halo" cx="0" cy="0" r="1" gradientUnits="userSpaceOnUse" gradientTransform="translate(62 56) rotate(115) scale(52)">
      <stop stop-color="#F6E7B8" />
      <stop offset="1" stop-color="#F6E7B8" stop-opacity="0" />
    </radialGradient>
    <linearGradient id="gold" x1="22" y1="24" x2="98" y2="96" gradientUnits="userSpaceOnUse">
      <stop offset="0" stop-color="#F9EEC8" />
      <stop offset="0.55" stop-color="#E3C16E" />
      <stop offset="1" stop-color="#B8892E" />
    </linearGradient>
    <linearGradient id="shine" x1="24" y1="28" x2="82" y2="44" gradientUnits="userSpaceOnUse">
      <stop offset="0" stop-color="#FFFFFF" stop-opacity="0.7" />
      <stop offset="1" stop-color="#FFFFFF" stop-opacity="0" />
    </linearGradient>
  </defs>
</svg>
